<svg xmlns="http://www.w3.org/2000/svg" xmlns:xlink="http://www.w3.org/1999/xlink" width="500" zoomAndPan="magnify" viewBox="0 0 375 374.999991" height="500" preserveAspectRatio="xMidYMid meet" version="1.0"><defs><clipPath id="d035610247"><path d="M 25.0625 5.171875 L 349.8125 5.171875 L 349.8125 369.671875 L 25.0625 369.671875 Z M 25.0625 5.171875 " clip-rule="nonzero"/></clipPath><clipPath id="ba3b6e423c"><path d="M 208.757812 29.035156 L 322.40625 94.652344 C 324.710938 93.050781 327.519531 92.121094 330.535156 92.121094 C 332.449219 92.121094 334.308594 92.507812 335.996094 93.21875 C 337.757812 93.941406 339.324219 95.003906 340.636719 96.316406 C 341.941406 97.617188 343.003906 99.199219 343.738281 100.957031 C 344.4375 102.660156 344.835938 104.503906 344.835938 106.421875 C 344.835938 108.335938 344.449219 110.195312 343.738281 111.882812 C 343.015625 113.644531 341.953125 115.210938 340.636719 116.523438 C 339.675781 117.488281 338.566406 118.320312 337.347656 118.984375 L 337.335938 118.972656 C 337.117188 119.09375 336.886719 119.203125 336.671875 119.308594 L 336.671875 250.472656 C 337.429688 250.796875 338.203125 251.183594 338.960938 251.628906 C 341.496094 253.089844 343.628906 255.007812 345.316406 257.199219 C 347.066406 259.480469 348.332031 262.058594 349.054688 264.785156 C 352.128906 276.238281 345.292969 288.25 333.71875 291.335938 C 331.003906 292.058594 328.132812 292.265625 325.277344 291.878906 C 322.902344 291.566406 320.539062 290.851562 318.28125 289.707031 L 318.199219 289.707031 L 317.246094 289.164062 C 316.496094 288.730469 315.773438 288.25 315.074219 287.730469 L 204.707031 351.441406 C 204.730469 351.78125 204.730469 352.105469 204.730469 352.441406 C 204.730469 354.757812 204.261719 356.976562 203.414062 359.027344 L 203.414062 359.039062 C 202.535156 361.160156 201.257812 363.054688 199.675781 364.632812 C 198.109375 366.199219 196.203125 367.480469 194.082031 368.359375 C 192.03125 369.203125 189.8125 369.671875 187.488281 369.671875 C 185.171875 369.671875 182.941406 369.203125 180.890625 368.359375 C 178.757812 367.480469 176.863281 366.199219 175.296875 364.632812 C 173.726562 363.066406 172.449219 361.160156 171.570312 359.039062 C 170.726562 357 170.253906 354.769531 170.253906 352.441406 C 170.253906 352.179688 170.269531 351.914062 170.28125 351.636719 L 59.886719 287.898438 C 59.152344 288.453125 58.378906 288.972656 57.582031 289.429688 L 57.570312 289.441406 L 57.558594 289.441406 L 57.546875 289.429688 C 55.003906 290.890625 52.289062 291.78125 49.550781 292.144531 C 46.695312 292.515625 43.824219 292.324219 41.125 291.601562 C 38.398438 290.878906 35.804688 289.609375 33.539062 287.863281 C 31.355469 286.1875 29.4375 284.039062 27.96875 281.484375 L 27.945312 281.4375 L 27.933594 281.449219 C 26.484375 278.929688 25.605469 276.214844 25.242188 273.464844 C 24.871094 270.609375 25.074219 267.75 25.796875 265.050781 C 26.519531 262.324219 27.789062 259.746094 29.535156 257.464844 C 31.210938 255.285156 33.359375 253.367188 35.914062 251.894531 L 36.867188 251.351562 L 36.914062 251.351562 C 37.289062 251.160156 37.664062 250.980469 38.011719 250.820312 L 38.011719 119.601562 C 37.699219 119.46875 37.398438 119.335938 37.097656 119.175781 C 35.683594 118.476562 34.429688 117.5625 33.382812 116.511719 C 32.082031 115.210938 31.03125 113.644531 30.296875 111.871094 C 29.597656 110.171875 29.199219 108.324219 29.199219 106.410156 C 29.199219 104.503906 29.585938 102.660156 30.296875 100.957031 L 30.296875 100.945312 C 31.019531 99.199219 32.082031 97.617188 33.394531 96.316406 C 35.976562 93.734375 39.554688 92.132812 43.5 92.132812 C 45.417969 92.132812 47.273438 92.519531 48.960938 93.230469 C 50.023438 93.664062 51.011719 94.230469 51.914062 94.882812 L 165.613281 29.242188 C 165.527344 28.46875 165.480469 27.671875 165.480469 26.878906 C 165.480469 23.972656 166.070312 21.160156 167.132812 18.59375 L 167.132812 18.582031 C 169.050781 13.9375 171.28125 12.011719 174.933594 8.984375 C 176.164062 8.140625 177.492188 7.429688 178.878906 6.847656 C 181.445312 5.789062 184.253906 5.199219 187.171875 5.199219 C 190.078125 5.199219 192.890625 5.789062 195.457031 6.847656 L 195.46875 6.847656 C 198.132812 7.945312 200.523438 9.5625 202.511719 11.550781 C 204.5 13.542969 206.117188 15.929688 207.214844 18.59375 L 207.214844 18.605469 C 208.273438 21.171875 208.867188 23.972656 208.867188 26.890625 C 208.867188 27.613281 208.828125 28.335938 208.757812 29.058594 Z M 34.671875 273.09375 Z M 59.234375 271.40625 C 59.972656 256.875 39.085938 253.304688 34.960938 267.269531 C 34.722656 268.210938 34.578125 269.1875 34.527344 270.164062 C 34.480469 271.140625 34.527344 272.128906 34.671875 273.105469 C 37.386719 287.378906 58.511719 285.933594 59.234375 271.417969 Z M 175.078125 26.164062 C 175.03125 27.140625 175.078125 28.132812 175.222656 29.109375 C 175.8125 32.183594 177.492188 34.800781 179.816406 36.59375 C 182.144531 38.390625 185.113281 39.367188 188.246094 39.164062 C 191.382812 38.945312 194.191406 37.585938 196.253906 35.484375 C 198.316406 33.386719 199.640625 30.554688 199.796875 27.417969 C 199.953125 24.285156 198.929688 21.332031 197.085938 19.039062 C 195.242188 16.738281 192.585938 15.097656 189.5 14.566406 C 186.402344 14.035156 183.351562 14.710938 180.855469 16.265625 C 178.359375 17.820312 176.417969 20.269531 175.523438 23.273438 C 175.285156 24.210938 175.140625 25.1875 175.089844 26.164062 Z M 315.835938 269.835938 C 315.785156 270.8125 315.835938 271.800781 315.980469 272.777344 C 316.570312 275.855469 318.246094 278.46875 320.574219 280.265625 C 322.902344 282.0625 325.867188 283.039062 329.003906 282.835938 C 332.136719 282.617188 334.945312 281.253906 337.007812 279.15625 C 339.070312 277.058594 340.398438 274.226562 340.554688 271.089844 C 340.710938 267.957031 339.6875 265 337.839844 262.710938 C 335.996094 260.40625 333.34375 258.769531 330.257812 258.238281 C 327.15625 257.707031 324.105469 258.382812 321.609375 259.9375 C 319.113281 261.492188 317.171875 263.941406 316.28125 266.941406 C 316.039062 267.882812 315.894531 268.859375 315.847656 269.835938 Z M 57.449219 103.335938 C 57.667969 104.335938 57.789062 105.359375 57.789062 106.410156 C 57.789062 108.324219 57.402344 110.183594 56.691406 111.871094 C 55.96875 113.632812 54.90625 115.199219 53.59375 116.511719 C 52.386719 117.71875 50.964844 118.707031 49.371094 119.429688 C 48.972656 119.613281 48.574219 119.769531 48.152344 119.914062 L 48.152344 249.039062 C 48.972656 249.085938 49.769531 249.195312 50.566406 249.328125 L 170.796875 41.09375 C 170.183594 40.394531 169.617188 39.644531 169.109375 38.886719 L 57.4375 103.359375 Z M 168.675781 191.210938 L 169 191.378906 L 169.011719 191.378906 C 169.726562 191.753906 170.398438 192.1875 171.027344 192.667969 L 244.582031 150.203125 C 244.414062 149.332031 244.328125 148.453125 244.328125 147.585938 C 244.328125 145.679688 244.714844 143.835938 245.425781 142.136719 L 245.425781 142.125 C 246.078125 140.542969 246.996094 139.121094 248.128906 137.902344 L 195.566406 46.867188 C 194.902344 47.144531 194.226562 47.398438 193.539062 47.605469 L 193.527344 47.605469 C 191.996094 48.074219 190.417969 48.375 188.800781 48.507812 L 168.6875 191.222656 Z M 176.34375 201.253906 C 176.527344 202.15625 176.609375 203.074219 176.609375 204.003906 L 176.609375 204.363281 L 310.15625 258.25 C 311.058594 256.898438 312.085938 255.691406 313.207031 254.632812 C 313.710938 254.160156 314.230469 253.703125 314.773438 253.28125 L 261.789062 161.511719 C 260.777344 161.742188 259.714844 161.863281 258.640625 161.863281 C 256.726562 161.863281 254.867188 161.476562 253.179688 160.765625 C 251.960938 160.257812 250.839844 159.605469 249.839844 158.824219 L 176.367188 201.242188 Z M 172.789062 213.722656 C 172.667969 213.855469 172.546875 213.984375 172.425781 214.105469 C 169.84375 216.6875 166.265625 218.289062 162.320312 218.289062 C 160.402344 218.289062 158.546875 217.90625 156.859375 217.195312 C 155.398438 216.589844 154.074219 215.769531 152.929688 214.769531 L 67.421875 264.132812 C 67.605469 264.699219 67.761719 265.265625 67.894531 265.847656 L 67.894531 265.859375 C 68 266.339844 68.097656 266.808594 68.171875 267.292969 L 305.523438 267.292969 L 172.789062 213.734375 Z M 148.152344 205.871094 C 148.070312 205.246094 148.019531 204.617188 148.019531 204.003906 C 148.019531 202.097656 148.40625 200.253906 149.117188 198.550781 L 149.117188 198.539062 C 149.839844 196.792969 150.902344 195.210938 152.214844 193.910156 C 153.496094 192.632812 155.027344 191.59375 156.738281 190.871094 C 157.339844 190.617188 157.957031 190.402344 158.59375 190.234375 L 178.695312 47.578125 L 59.863281 253.402344 C 60.210938 253.667969 60.539062 253.933594 60.875 254.222656 C 61.34375 254.621094 61.792969 255.054688 62.238281 255.5 L 148.164062 205.894531 Z M 258.617188 133.296875 C 260.535156 133.296875 262.394531 133.683594 264.082031 134.394531 C 265.839844 135.117188 267.410156 136.179688 268.722656 137.492188 C 270.027344 138.796875 271.085938 140.375 271.820312 142.136719 C 272.523438 143.835938 272.917969 145.679688 272.917969 147.597656 C 272.917969 149.515625 272.535156 151.371094 271.820312 153.058594 C 271.386719 154.097656 270.84375 155.0625 270.207031 155.953125 L 323.984375 249.097656 C 324.816406 248.941406 325.664062 248.820312 326.519531 248.761719 L 326.519531 120.117188 C 326.023438 119.972656 325.53125 119.792969 325.058594 119.601562 C 323.285156 118.863281 321.71875 117.804688 320.417969 116.511719 C 319.113281 115.210938 318.066406 113.644531 317.328125 111.871094 C 316.628906 110.171875 316.234375 108.324219 316.234375 106.410156 C 316.234375 105.25 316.378906 104.105469 316.65625 102.996094 L 205.320312 38.71875 L 203.789062 40.910156 L 257.171875 133.371094 C 257.652344 133.320312 258.136719 133.296875 258.617188 133.296875 Z M 67.351562 277.421875 C 67.074219 278.265625 66.734375 279.109375 66.335938 279.941406 L 173.667969 341.90625 L 175.332031 340.242188 C 178.457031 337.117188 182.761719 335.1875 187.523438 335.1875 C 189.824219 335.1875 192.058594 335.660156 194.105469 336.503906 L 194.117188 336.503906 C 196.242188 337.382812 198.132812 338.660156 199.714844 340.242188 C 200.207031 340.734375 200.691406 341.277344 201.125 341.84375 L 308.585938 279.808594 C 308.214844 279.023438 307.875 278.230469 307.597656 277.421875 Z M 67.351562 277.421875 " clip-rule="nonzero"/></clipPath><linearGradient x1="15.769485" gradientTransform="matrix(1.205825, -0.000000000000000005, 0.000000000000000005, 1.205756, 25.074297, 5.1734)" y1="314.835062" x2="267.202772" gradientUnits="userSpaceOnUse" y2="-1.653179" id="a2675855f0"><stop stop-opacity="1" stop-color="rgb(1.687622%, 67.06543%, 93.388367%)" offset="0"/><stop stop-opacity="1" stop-color="rgb(2.16217%, 66.635132%, 93.299866%)" offset="0.00390625"/><stop stop-opacity="1" stop-color="rgb(2.636719%, 66.204834%, 93.212891%)" offset="0.0078125"/><stop stop-opacity="1" stop-color="rgb(3.109741%, 65.774536%, 93.125916%)" offset="0.0117187"/><stop stop-opacity="1" stop-color="rgb(3.58429%, 65.344238%, 93.03894%)" offset="0.015625"/><stop stop-opacity="1" stop-color="rgb(4.058838%, 64.91394%, 92.950439%)" offset="0.0195312"/><stop stop-opacity="1" stop-color="rgb(4.533386%, 64.483643%, 92.863464%)" offset="0.0234375"/><stop stop-opacity="1" stop-color="rgb(5.006409%, 64.053345%, 92.776489%)" offset="0.0273438"/><stop stop-opacity="1" stop-color="rgb(5.480957%, 63.623047%, 92.689514%)" offset="0.03125"/><stop stop-opacity="1" stop-color="rgb(5.953979%, 63.192749%, 92.602539%)" offset="0.0351562"/><stop stop-opacity="1" stop-color="rgb(6.428528%, 62.762451%, 92.515564%)" offset="0.0390625"/><stop stop-opacity="1" stop-color="rgb(6.903076%, 62.330627%, 92.427063%)" offset="0.0429688"/><stop stop-opacity="1" stop-color="rgb(7.377625%, 61.90033%, 92.340088%)" offset="0.046875"/><stop stop-opacity="1" stop-color="rgb(7.850647%, 61.470032%, 92.253113%)" offset="0.0507813"/><stop stop-opacity="1" stop-color="rgb(8.325195%, 61.039734%, 92.166138%)" offset="0.0546875"/><stop stop-opacity="1" stop-color="rgb(8.798218%, 60.609436%, 92.077637%)" offset="0.0585938"/><stop stop-opacity="1" stop-color="rgb(9.272766%, 60.179138%, 91.990662%)" offset="0.0625"/><stop stop-opacity="1" stop-color="rgb(9.747314%, 59.74884%, 91.903687%)" offset="0.0664062"/><stop stop-opacity="1" stop-color="rgb(10.221863%, 59.318542%, 91.816711%)" offset="0.0703125"/><stop stop-opacity="1" stop-color="rgb(10.694885%, 58.888245%, 91.72821%)" offset="0.0742188"/><stop stop-opacity="1" stop-color="rgb(11.169434%, 58.457947%, 91.641235%)" offset="0.078125"/><stop stop-opacity="1" stop-color="rgb(11.642456%, 58.027649%, 91.55426%)" offset="0.0820312"/><stop stop-opacity="1" stop-color="rgb(12.117004%, 57.597351%, 91.467285%)" offset="0.0859375"/><stop stop-opacity="1" stop-color="rgb(12.591553%, 57.167053%, 91.378784%)" offset="0.0898437"/><stop stop-opacity="1" stop-color="rgb(13.066101%, 56.736755%, 91.291809%)" offset="0.09375"/><stop stop-opacity="1" stop-color="rgb(13.539124%, 56.304932%, 91.204834%)" offset="0.0976562"/><stop stop-opacity="1" stop-color="rgb(14.013672%, 55.874634%, 91.117859%)" offset="0.101562"/><stop stop-opacity="1" stop-color="rgb(14.48822%, 55.444336%, 91.029358%)" offset="0.105469"/><stop stop-opacity="1" stop-color="rgb(14.962769%, 55.014038%, 90.942383%)" offset="0.109375"/><stop stop-opacity="1" stop-color="rgb(15.435791%, 54.58374%, 90.855408%)" offset="0.113281"/><stop stop-opacity="1" stop-color="rgb(15.910339%, 54.153442%, 90.768433%)" offset="0.117188"/><stop stop-opacity="1" stop-color="rgb(16.383362%, 53.723145%, 90.679932%)" offset="0.121094"/><stop stop-opacity="1" stop-color="rgb(16.85791%, 53.292847%, 90.592957%)" offset="0.125"/><stop stop-opacity="1" stop-color="rgb(17.332458%, 52.862549%, 90.505981%)" offset="0.128906"/><stop stop-opacity="1" stop-color="rgb(17.807007%, 52.432251%, 90.419006%)" offset="0.132812"/><stop stop-opacity="1" stop-color="rgb(18.280029%, 52.001953%, 90.332031%)" offset="0.136719"/><stop stop-opacity="1" stop-color="rgb(18.754578%, 51.571655%, 90.245056%)" offset="0.140625"/><stop stop-opacity="1" stop-color="rgb(19.2276%, 51.141357%, 90.156555%)" offset="0.144531"/><stop stop-opacity="1" stop-color="rgb(19.702148%, 50.71106%, 90.06958%)" offset="0.148438"/><stop stop-opacity="1" stop-color="rgb(20.176697%, 50.280762%, 89.982605%)" offset="0.152344"/><stop stop-opacity="1" stop-color="rgb(20.651245%, 49.850464%, 89.89563%)" offset="0.15625"/><stop stop-opacity="1" stop-color="rgb(21.124268%, 49.41864%, 89.807129%)" offset="0.160156"/><stop stop-opacity="1" stop-color="rgb(21.598816%, 48.988342%, 89.720154%)" offset="0.164062"/><stop stop-opacity="1" stop-color="rgb(22.071838%, 48.558044%, 89.633179%)" offset="0.167969"/><stop stop-opacity="1" stop-color="rgb(22.546387%, 48.127747%, 89.546204%)" offset="0.171875"/><stop stop-opacity="1" stop-color="rgb(23.020935%, 47.697449%, 89.457703%)" offset="0.175781"/><stop stop-opacity="1" stop-color="rgb(23.495483%, 47.267151%, 89.370728%)" offset="0.179687"/><stop stop-opacity="1" stop-color="rgb(23.968506%, 46.836853%, 89.283752%)" offset="0.183594"/><stop stop-opacity="1" stop-color="rgb(24.443054%, 46.406555%, 89.196777%)" offset="0.1875"/><stop stop-opacity="1" stop-color="rgb(24.917603%, 45.976257%, 89.108276%)" offset="0.191406"/><stop stop-opacity="1" stop-color="rgb(25.392151%, 45.545959%, 89.021301%)" offset="0.195312"/><stop stop-opacity="1" stop-color="rgb(25.865173%, 45.115662%, 88.934326%)" offset="0.199219"/><stop stop-opacity="1" stop-color="rgb(26.339722%, 44.685364%, 88.847351%)" offset="0.203125"/><stop stop-opacity="1" stop-color="rgb(26.812744%, 44.255066%, 88.75885%)" offset="0.207031"/><stop stop-opacity="1" stop-color="rgb(27.287292%, 43.824768%, 88.671875%)" offset="0.210937"/><stop stop-opacity="1" stop-color="rgb(27.761841%, 43.392944%, 88.5849%)" offset="0.214844"/><stop stop-opacity="1" stop-color="rgb(28.236389%, 42.962646%, 88.497925%)" offset="0.21875"/><stop stop-opacity="1" stop-color="rgb(28.709412%, 42.532349%, 88.409424%)" offset="0.222656"/><stop stop-opacity="1" stop-color="rgb(29.18396%, 42.102051%, 88.322449%)" offset="0.226562"/><stop stop-opacity="1" stop-color="rgb(29.656982%, 41.671753%, 88.235474%)" offset="0.230469"/><stop stop-opacity="1" stop-color="rgb(30.131531%, 41.241455%, 88.148499%)" offset="0.234375"/><stop stop-opacity="1" stop-color="rgb(30.606079%, 40.811157%, 88.061523%)" offset="0.238281"/><stop stop-opacity="1" stop-color="rgb(31.080627%, 40.380859%, 87.974548%)" offset="0.242187"/><stop stop-opacity="1" stop-color="rgb(31.55365%, 39.950562%, 87.886047%)" offset="0.246094"/><stop stop-opacity="1" stop-color="rgb(32.028198%, 39.520264%, 87.799072%)" offset="0.25"/><stop stop-opacity="1" stop-color="rgb(32.501221%, 39.089966%, 87.712097%)" offset="0.253906"/><stop stop-opacity="1" stop-color="rgb(32.975769%, 38.659668%, 87.625122%)" offset="0.257812"/><stop stop-opacity="1" stop-color="rgb(33.450317%, 38.22937%, 87.536621%)" offset="0.261719"/><stop stop-opacity="1" stop-color="rgb(33.924866%, 37.799072%, 87.449646%)" offset="0.265625"/><stop stop-opacity="1" stop-color="rgb(34.397888%, 37.368774%, 87.362671%)" offset="0.269531"/><stop stop-opacity="1" stop-color="rgb(34.872437%, 36.938477%, 87.275696%)" offset="0.273438"/><stop stop-opacity="1" stop-color="rgb(35.346985%, 36.506653%, 87.187195%)" offset="0.277344"/><stop stop-opacity="1" stop-color="rgb(35.821533%, 36.076355%, 87.10022%)" offset="0.28125"/><stop stop-opacity="1" stop-color="rgb(36.294556%, 35.646057%, 87.013245%)" offset="0.285156"/><stop stop-opacity="1" stop-color="rgb(36.769104%, 35.215759%, 86.92627%)" offset="0.289062"/><stop stop-opacity="1" stop-color="rgb(37.242126%, 34.785461%, 86.837769%)" offset="0.292969"/><stop stop-opacity="1" stop-color="rgb(37.716675%, 34.355164%, 86.750793%)" offset="0.296875"/><stop stop-opacity="1" stop-color="rgb(37.744141%, 34.576416%, 86.657715%)" offset="0.300781"/><stop stop-opacity="1" stop-color="rgb(37.773132%, 34.797668%, 86.564636%)" offset="0.304688"/><stop stop-opacity="1" stop-color="rgb(37.611389%, 35.293579%, 86.468506%)" offset="0.308594"/><stop stop-opacity="1" stop-color="rgb(37.449646%, 35.791016%, 86.372375%)" offset="0.3125"/><stop stop-opacity="1" stop-color="rgb(37.287903%, 36.288452%, 86.276245%)" offset="0.316406"/><stop stop-opacity="1" stop-color="rgb(37.12616%, 36.785889%, 86.180115%)" offset="0.320312"/><stop stop-opacity="1" stop-color="rgb(36.964417%, 37.281799%, 86.083984%)" offset="0.324219"/><stop stop-opacity="1" stop-color="rgb(36.804199%, 37.779236%, 85.987854%)" offset="0.328125"/><stop stop-opacity="1" stop-color="rgb(36.642456%, 38.276672%, 85.891724%)" offset="0.332031"/><stop stop-opacity="1" stop-color="rgb(36.480713%, 38.774109%, 85.795593%)" offset="0.335937"/><stop stop-opacity="1" stop-color="rgb(36.31897%, 39.27002%, 85.699463%)" offset="0.339844"/><stop stop-opacity="1" stop-color="rgb(36.157227%, 39.767456%, 85.603333%)" offset="0.34375"/><stop stop-opacity="1" stop-color="rgb(35.995483%, 40.264893%, 85.507202%)" offset="0.347656"/><stop stop-opacity="1" stop-color="rgb(35.835266%, 40.762329%, 85.412598%)" offset="0.351562"/><stop stop-opacity="1" stop-color="rgb(35.673523%, 41.25824%, 85.316467%)" offset="0.355469"/><stop stop-opacity="1" stop-color="rgb(35.51178%, 41.755676%, 85.220337%)" offset="0.359375"/><stop stop-opacity="1" stop-color="rgb(35.350037%, 42.253113%, 85.124207%)" offset="0.363281"/><stop stop-opacity="1" stop-color="rgb(35.188293%, 42.750549%, 85.028076%)" offset="0.367187"/><stop stop-opacity="1" stop-color="rgb(35.02655%, 43.24646%, 84.931946%)" offset="0.371094"/><stop stop-opacity="1" stop-color="rgb(34.866333%, 43.743896%, 84.835815%)" offset="0.375"/><stop stop-opacity="1" stop-color="rgb(34.70459%, 44.241333%, 84.739685%)" offset="0.378906"/><stop stop-opacity="1" stop-color="rgb(34.542847%, 44.73877%, 84.643555%)" offset="0.382812"/><stop stop-opacity="1" stop-color="rgb(34.381104%, 45.23468%, 84.547424%)" offset="0.386719"/><stop stop-opacity="1" stop-color="rgb(34.220886%, 45.732117%, 84.451294%)" offset="0.390625"/><stop stop-opacity="1" stop-color="rgb(34.059143%, 46.229553%, 84.355164%)" offset="0.394531"/><stop stop-opacity="1" stop-color="rgb(33.8974%, 46.72699%, 84.259033%)" offset="0.398437"/><stop stop-opacity="1" stop-color="rgb(33.735657%, 47.224426%, 84.162903%)" offset="0.402344"/><stop stop-opacity="1" stop-color="rgb(33.573914%, 47.721863%, 84.066772%)" offset="0.40625"/><stop stop-opacity="1" stop-color="rgb(33.41217%, 48.217773%, 83.970642%)" offset="0.410156"/><stop stop-opacity="1" stop-color="rgb(33.251953%, 48.71521%, 83.876038%)" offset="0.414062"/><stop stop-opacity="1" stop-color="rgb(33.09021%, 49.212646%, 83.779907%)" offset="0.417969"/><stop stop-opacity="1" stop-color="rgb(32.928467%, 49.710083%, 83.683777%)" offset="0.421875"/><stop stop-opacity="1" stop-color="rgb(32.766724%, 50.205994%, 83.587646%)" offset="0.425781"/><stop stop-opacity="1" stop-color="rgb(32.60498%, 50.70343%, 83.491516%)" offset="0.429687"/><stop stop-opacity="1" stop-color="rgb(32.443237%, 51.200867%, 83.395386%)" offset="0.433594"/><stop stop-opacity="1" stop-color="rgb(32.28302%, 51.698303%, 83.299255%)" offset="0.4375"/><stop stop-opacity="1" stop-color="rgb(32.121277%, 52.194214%, 83.203125%)" offset="0.441406"/><stop stop-opacity="1" stop-color="rgb(31.959534%, 52.69165%, 83.106995%)" offset="0.445312"/><stop stop-opacity="1" stop-color="rgb(31.797791%, 53.189087%, 83.010864%)" offset="0.449219"/><stop stop-opacity="1" stop-color="rgb(31.636047%, 53.686523%, 82.914734%)" offset="0.453125"/><stop stop-opacity="1" stop-color="rgb(31.474304%, 54.182434%, 82.818604%)" offset="0.457031"/><stop stop-opacity="1" stop-color="rgb(31.314087%, 54.679871%, 82.722473%)" offset="0.460938"/><stop stop-opacity="1" stop-color="rgb(31.152344%, 55.177307%, 82.626343%)" offset="0.464844"/><stop stop-opacity="1" stop-color="rgb(30.990601%, 55.674744%, 82.530212%)" offset="0.46875"/><stop stop-opacity="1" stop-color="rgb(30.828857%, 56.170654%, 82.434082%)" offset="0.472656"/><stop stop-opacity="1" stop-color="rgb(30.66864%, 56.668091%, 82.339478%)" offset="0.476562"/><stop stop-opacity="1" stop-color="rgb(30.506897%, 57.165527%, 82.243347%)" offset="0.480469"/><stop stop-opacity="1" stop-color="rgb(30.345154%, 57.662964%, 82.147217%)" offset="0.484375"/><stop stop-opacity="1" stop-color="rgb(30.183411%, 58.158875%, 82.051086%)" offset="0.488281"/><stop stop-opacity="1" stop-color="rgb(30.021667%, 58.656311%, 81.954956%)" offset="0.492188"/><stop stop-opacity="1" stop-color="rgb(29.859924%, 59.153748%, 81.858826%)" offset="0.496094"/><stop stop-opacity="1" stop-color="rgb(29.699707%, 59.651184%, 81.762695%)" offset="0.5"/><stop stop-opacity="1" stop-color="rgb(29.537964%, 60.147095%, 81.666565%)" offset="0.503906"/><stop stop-opacity="1" stop-color="rgb(29.376221%, 60.644531%, 81.570435%)" offset="0.507812"/><stop stop-opacity="1" stop-color="rgb(29.214478%, 61.141968%, 81.474304%)" offset="0.511719"/><stop stop-opacity="1" stop-color="rgb(29.052734%, 61.639404%, 81.378174%)" offset="0.515625"/><stop stop-opacity="1" stop-color="rgb(28.890991%, 62.135315%, 81.282043%)" offset="0.519531"/><stop stop-opacity="1" stop-color="rgb(28.730774%, 62.632751%, 81.185913%)" offset="0.523438"/><stop stop-opacity="1" stop-color="rgb(28.569031%, 63.130188%, 81.089783%)" offset="0.527344"/><stop stop-opacity="1" stop-color="rgb(28.407288%, 63.627625%, 80.993652%)" offset="0.53125"/><stop stop-opacity="1" stop-color="rgb(28.245544%, 64.123535%, 80.897522%)" offset="0.535156"/><stop stop-opacity="1" stop-color="rgb(28.083801%, 64.620972%, 80.802917%)" offset="0.539062"/><stop stop-opacity="1" stop-color="rgb(27.922058%, 65.118408%, 80.706787%)" offset="0.542969"/><stop stop-opacity="1" stop-color="rgb(27.761841%, 65.615845%, 80.610657%)" offset="0.546875"/><stop stop-opacity="1" stop-color="rgb(27.600098%, 66.111755%, 80.514526%)" offset="0.550781"/><stop stop-opacity="1" stop-color="rgb(27.438354%, 66.609192%, 80.418396%)" offset="0.554687"/><stop stop-opacity="1" stop-color="rgb(27.276611%, 67.106628%, 80.322266%)" offset="0.558594"/><stop stop-opacity="1" stop-color="rgb(27.116394%, 67.604065%, 80.226135%)" offset="0.5625"/><stop stop-opacity="1" stop-color="rgb(26.954651%, 68.099976%, 80.130005%)" offset="0.566406"/><stop stop-opacity="1" stop-color="rgb(26.792908%, 68.597412%, 80.033875%)" offset="0.570312"/><stop stop-opacity="1" stop-color="rgb(26.631165%, 69.094849%, 79.937744%)" offset="0.574219"/><stop stop-opacity="1" stop-color="rgb(26.469421%, 69.592285%, 79.841614%)" offset="0.578125"/><stop stop-opacity="1" stop-color="rgb(26.307678%, 70.088196%, 79.745483%)" offset="0.582031"/><stop stop-opacity="1" stop-color="rgb(26.147461%, 70.585632%, 79.649353%)" offset="0.585938"/><stop stop-opacity="1" stop-color="rgb(25.985718%, 71.083069%, 79.553223%)" offset="0.589844"/><stop stop-opacity="1" stop-color="rgb(25.823975%, 71.580505%, 79.457092%)" offset="0.59375"/><stop stop-opacity="1" stop-color="rgb(25.662231%, 72.076416%, 79.360962%)" offset="0.597656"/><stop stop-opacity="1" stop-color="rgb(25.500488%, 72.573853%, 79.266357%)" offset="0.601562"/><stop stop-opacity="1" stop-color="rgb(25.338745%, 73.071289%, 79.170227%)" offset="0.605469"/><stop stop-opacity="1" stop-color="rgb(25.178528%, 73.568726%, 79.074097%)" offset="0.609375"/><stop stop-opacity="1" stop-color="rgb(25.016785%, 74.064636%, 78.977966%)" offset="0.613281"/><stop stop-opacity="1" stop-color="rgb(24.855042%, 74.562073%, 78.881836%)" offset="0.617188"/><stop stop-opacity="1" stop-color="rgb(24.693298%, 75.059509%, 78.785706%)" offset="0.621094"/><stop stop-opacity="1" stop-color="rgb(24.531555%, 75.556946%, 78.689575%)" offset="0.625"/><stop stop-opacity="1" stop-color="rgb(24.369812%, 76.052856%, 78.593445%)" offset="0.628906"/><stop stop-opacity="1" stop-color="rgb(24.209595%, 76.550293%, 78.497314%)" offset="0.632812"/><stop stop-opacity="1" stop-color="rgb(24.047852%, 77.047729%, 78.401184%)" offset="0.636719"/><stop stop-opacity="1" stop-color="rgb(23.886108%, 77.545166%, 78.305054%)" offset="0.640625"/><stop stop-opacity="1" stop-color="rgb(23.724365%, 78.041077%, 78.208923%)" offset="0.644531"/><stop stop-opacity="1" stop-color="rgb(23.564148%, 78.538513%, 78.112793%)" offset="0.648437"/><stop stop-opacity="1" stop-color="rgb(23.402405%, 79.03595%, 78.016663%)" offset="0.652344"/><stop stop-opacity="1" stop-color="rgb(23.240662%, 79.533386%, 77.920532%)" offset="0.65625"/><stop stop-opacity="1" stop-color="rgb(23.078918%, 80.029297%, 77.824402%)" offset="0.660156"/><stop stop-opacity="1" stop-color="rgb(22.917175%, 80.526733%, 77.729797%)" offset="0.664062"/><stop stop-opacity="1" stop-color="rgb(22.72644%, 80.929565%, 77.745056%)" offset="0.667969"/><stop stop-opacity="1" stop-color="rgb(22.537231%, 81.333923%, 77.760315%)" offset="0.671875"/><stop stop-opacity="1" stop-color="rgb(22.285461%, 81.541443%, 78.007507%)" offset="0.675781"/><stop stop-opacity="1" stop-color="rgb(22.035217%, 81.748962%, 78.2547%)" offset="0.679688"/><stop stop-opacity="1" stop-color="rgb(21.783447%, 81.956482%, 78.501892%)" offset="0.683594"/><stop stop-opacity="1" stop-color="rgb(21.533203%, 82.164001%, 78.749084%)" offset="0.6875"/><stop stop-opacity="1" stop-color="rgb(21.281433%, 82.371521%, 78.996277%)" offset="0.691406"/><stop stop-opacity="1" stop-color="rgb(21.031189%, 82.580566%, 79.244995%)" offset="0.695312"/><stop stop-opacity="1" stop-color="rgb(20.780945%, 82.788086%, 79.492188%)" offset="0.699219"/><stop stop-opacity="1" stop-color="rgb(20.530701%, 82.995605%, 79.73938%)" offset="0.703125"/><stop stop-opacity="1" stop-color="rgb(20.278931%, 83.203125%, 79.986572%)" offset="0.707031"/><stop stop-opacity="1" stop-color="rgb(20.028687%, 83.410645%, 80.233765%)" offset="0.710937"/><stop stop-opacity="1" stop-color="rgb(19.776917%, 83.618164%, 80.480957%)" offset="0.714844"/><stop stop-opacity="1" stop-color="rgb(19.526672%, 83.825684%, 80.729675%)" offset="0.71875"/><stop stop-opacity="1" stop-color="rgb(19.276428%, 84.033203%, 80.976868%)" offset="0.722656"/><stop stop-opacity="1" stop-color="rgb(19.026184%, 84.242249%, 81.22406%)" offset="0.726562"/><stop stop-opacity="1" stop-color="rgb(18.774414%, 84.449768%, 81.471252%)" offset="0.730469"/><stop stop-opacity="1" stop-color="rgb(18.52417%, 84.657288%, 81.719971%)" offset="0.734375"/><stop stop-opacity="1" stop-color="rgb(18.2724%, 84.864807%, 81.967163%)" offset="0.738281"/><stop stop-opacity="1" stop-color="rgb(18.022156%, 85.072327%, 82.214355%)" offset="0.742187"/><stop stop-opacity="1" stop-color="rgb(17.770386%, 85.279846%, 82.461548%)" offset="0.746094"/><stop stop-opacity="1" stop-color="rgb(17.520142%, 85.487366%, 82.70874%)" offset="0.75"/><stop stop-opacity="1" stop-color="rgb(17.269897%, 85.694885%, 82.955933%)" offset="0.753906"/><stop stop-opacity="1" stop-color="rgb(17.019653%, 85.903931%, 83.204651%)" offset="0.757812"/><stop stop-opacity="1" stop-color="rgb(16.767883%, 86.11145%, 83.451843%)" offset="0.761719"/><stop stop-opacity="1" stop-color="rgb(16.517639%, 86.31897%, 83.699036%)" offset="0.765625"/><stop stop-opacity="1" stop-color="rgb(16.265869%, 86.526489%, 83.946228%)" offset="0.769531"/><stop stop-opacity="1" stop-color="rgb(16.015625%, 86.734009%, 84.194946%)" offset="0.773437"/><stop stop-opacity="1" stop-color="rgb(15.763855%, 86.941528%, 84.442139%)" offset="0.777344"/><stop stop-opacity="1" stop-color="rgb(15.513611%, 87.149048%, 84.689331%)" offset="0.78125"/><stop stop-opacity="1" stop-color="rgb(15.263367%, 87.356567%, 84.936523%)" offset="0.785156"/><stop stop-opacity="1" stop-color="rgb(15.013123%, 87.565613%, 85.183716%)" offset="0.789062"/><stop stop-opacity="1" stop-color="rgb(14.761353%, 87.773132%, 85.430908%)" offset="0.792969"/><stop stop-opacity="1" stop-color="rgb(14.511108%, 87.980652%, 85.679626%)" offset="0.796875"/><stop stop-opacity="1" stop-color="rgb(14.259338%, 88.188171%, 85.926819%)" offset="0.800781"/><stop stop-opacity="1" stop-color="rgb(14.009094%, 88.395691%, 86.174011%)" offset="0.804688"/><stop stop-opacity="1" stop-color="rgb(13.75885%, 88.60321%, 86.421204%)" offset="0.808594"/><stop stop-opacity="1" stop-color="rgb(13.508606%, 88.81073%, 86.668396%)" offset="0.8125"/><stop stop-opacity="1" stop-color="rgb(13.256836%, 89.01825%, 86.915588%)" offset="0.816406"/><stop stop-opacity="1" stop-color="rgb(13.006592%, 89.227295%, 87.164307%)" offset="0.820312"/><stop stop-opacity="1" stop-color="rgb(12.754822%, 89.434814%, 87.411499%)" offset="0.824219"/><stop stop-opacity="1" stop-color="rgb(12.504578%, 89.642334%, 87.658691%)" offset="0.828125"/><stop stop-opacity="1" stop-color="rgb(12.252808%, 89.849854%, 87.905884%)" offset="0.832031"/><stop stop-opacity="1" stop-color="rgb(12.002563%, 90.057373%, 88.154602%)" offset="0.835938"/><stop stop-opacity="1" stop-color="rgb(11.752319%, 90.264893%, 88.401794%)" offset="0.839844"/><stop stop-opacity="1" stop-color="rgb(11.502075%, 90.473938%, 88.648987%)" offset="0.84375"/><stop stop-opacity="1" stop-color="rgb(11.250305%, 90.681458%, 88.896179%)" offset="0.847656"/><stop stop-opacity="1" stop-color="rgb(11.000061%, 90.888977%, 89.143372%)" offset="0.851562"/><stop stop-opacity="1" stop-color="rgb(10.748291%, 91.096497%, 89.390564%)" offset="0.855469"/><stop stop-opacity="1" stop-color="rgb(10.498047%, 91.304016%, 89.639282%)" offset="0.859375"/><stop stop-opacity="1" stop-color="rgb(10.246277%, 91.511536%, 89.886475%)" offset="0.863281"/><stop stop-opacity="1" stop-color="rgb(9.996033%, 91.719055%, 90.133667%)" offset="0.867187"/><stop stop-opacity="1" stop-color="rgb(9.745789%, 91.926575%, 90.380859%)" offset="0.871094"/><stop stop-opacity="1" stop-color="rgb(9.495544%, 92.13562%, 90.629578%)" offset="0.875"/><stop stop-opacity="1" stop-color="rgb(9.243774%, 92.34314%, 90.87677%)" offset="0.878906"/><stop stop-opacity="1" stop-color="rgb(8.99353%, 92.550659%, 91.123962%)" offset="0.882812"/><stop stop-opacity="1" stop-color="rgb(8.74176%, 92.758179%, 91.371155%)" offset="0.886719"/><stop stop-opacity="1" stop-color="rgb(8.491516%, 92.965698%, 91.618347%)" offset="0.890625"/><stop stop-opacity="1" stop-color="rgb(8.239746%, 93.173218%, 91.86554%)" offset="0.894531"/><stop stop-opacity="1" stop-color="rgb(7.989502%, 93.380737%, 92.114258%)" offset="0.898438"/><stop stop-opacity="1" stop-color="rgb(7.739258%, 93.588257%, 92.36145%)" offset="0.902344"/><stop stop-opacity="1" stop-color="rgb(7.489014%, 93.797302%, 92.608643%)" offset="0.90625"/><stop stop-opacity="1" stop-color="rgb(7.237244%, 94.004822%, 92.855835%)" offset="0.910156"/><stop stop-opacity="1" stop-color="rgb(6.987%, 94.212341%, 93.104553%)" offset="0.914062"/><stop stop-opacity="1" stop-color="rgb(6.735229%, 94.419861%, 93.351746%)" offset="0.917969"/><stop stop-opacity="1" stop-color="rgb(6.484985%, 94.62738%, 93.598938%)" offset="0.921875"/><stop stop-opacity="1" stop-color="rgb(6.234741%, 94.8349%, 93.84613%)" offset="0.925781"/><stop stop-opacity="1" stop-color="rgb(5.984497%, 95.042419%, 94.093323%)" offset="0.929688"/><stop stop-opacity="1" stop-color="rgb(5.732727%, 95.249939%, 94.340515%)" offset="0.933594"/><stop stop-opacity="1" stop-color="rgb(5.482483%, 95.458984%, 94.589233%)" offset="0.9375"/><stop stop-opacity="1" stop-color="rgb(5.230713%, 95.666504%, 94.836426%)" offset="0.941406"/><stop stop-opacity="1" stop-color="rgb(4.980469%, 95.874023%, 95.083618%)" offset="0.945312"/><stop stop-opacity="1" stop-color="rgb(4.728699%, 96.081543%, 95.330811%)" offset="0.949219"/><stop stop-opacity="1" stop-color="rgb(4.478455%, 96.289062%, 95.578003%)" offset="0.953125"/><stop stop-opacity="1" stop-color="rgb(4.22821%, 96.496582%, 95.825195%)" offset="0.957031"/><stop stop-opacity="1" stop-color="rgb(3.977966%, 96.704102%, 96.073914%)" offset="0.960938"/><stop stop-opacity="1" stop-color="rgb(3.726196%, 96.911621%, 96.321106%)" offset="0.964844"/><stop stop-opacity="1" stop-color="rgb(3.475952%, 97.120667%, 96.568298%)" offset="0.96875"/><stop stop-opacity="1" stop-color="rgb(3.224182%, 97.328186%, 96.815491%)" offset="0.972656"/><stop stop-opacity="1" stop-color="rgb(2.973938%, 97.535706%, 97.064209%)" offset="0.976562"/><stop stop-opacity="1" stop-color="rgb(2.722168%, 97.743225%, 97.311401%)" offset="0.980469"/><stop stop-opacity="1" stop-color="rgb(2.471924%, 97.950745%, 97.558594%)" offset="0.984375"/><stop stop-opacity="1" stop-color="rgb(2.22168%, 98.158264%, 97.805786%)" offset="0.988281"/><stop stop-opacity="1" stop-color="rgb(1.971436%, 98.365784%, 98.052979%)" offset="0.992187"/><stop stop-opacity="1" stop-color="rgb(1.719666%, 98.573303%, 98.300171%)" offset="0.996094"/><stop stop-opacity="1" stop-color="rgb(1.469421%, 98.782349%, 98.548889%)" offset="1"/></linearGradient></defs><g clip-path="url(#d035610247)"><g clip-path="url(#ba3b6e423c)"><path fill="url(#a2675855f0)" d="M 25.0625 5.199219 L 25.0625 369.671875 L 349.8125 369.671875 L 349.8125 5.199219 Z M 25.0625 5.199219 " fill-rule="nonzero"/></g></g></svg>