<?xml version="1.0" encoding="UTF-8"?>
<svg xmlns="http://www.w3.org/2000/svg" viewBox="0 0 709.52 496.18">
  <defs>
    <style>
      .f, .g {
        fill: #fff;
      }

      .h {
        fill: #ed1c24;
      }

      .g {
        font-family: ComicSansMS-Italic, 'Comic Sans MS';
        font-size: 109px;
        font-style: italic;
      }
    </style>
  </defs>
  <g id="a" data-name="Layer 1">
    <path class="h" d="M487.49,313.31c5.65-20.78,8.68-42.65,8.68-65.22C496.18,111.07,385.1,0,248.09,0S0,111.07,0,248.09s111.07,248.09,248.09,248.09c114.24,0,210.43-77.22,239.26-182.31,.04-.19,.09-.38,.15-.56Z"/>
  </g>
  <g id="c" data-name="Layer 6">
    <path class="f" d="M489.75,305.28c.02-.16,.04-.32,.06-.48l-77.28-105.94c-.1-.15-.25-.4-.35-.55l-24.24-44.75c-.16-.3-24.58-28.18-24.58-28.18-.08-.09-.16-.19-.24-.29l-19.74-26.41c-1.9-2.55-5.53-3.86-9.15-3.33-.22,.03-.43,.09-.63,.17l-30.69,11.68c-.76,.29-1.63,.26-2.34-.08-2.64-1.26-8.58-4.46-8.95-4.52l-40.66-6.92c-.73-.12-1.47-.14-2.21-.04l-43.91,6.03c-.37,.05-.74,.07-1.11,.07l-41.37-.68c-1.98-.03-3.87,.75-5.02,2.07l-35,40.18c-.16,.18-.31,.36-.44,.56-3.2,4.86-8.56,22.7-118.67,140.94,.32,.63,.51,1.32,.53,2.03,.01,.49,0,.98-.01,1.47L154.05,147.94c2.21-2.22,6.25-2.45,8.74-.5,0,0,17.15,21.95,29.95,23.18,0,0,14.36-8.84,20.44-14.49l25.36-18.13c1.81-3.34,7.3-3.97,10.07-1.16l19.66,19.99c2.38,2.42,6.95,2.36,9.32-.13l20.88-21.98c2.24-2.36,6.51-2.56,8.99-.43l20.53,17.58c3.64,3.12,10.17,.99,10.25-3.34,.09-4.62,7.33-6.59,10.7-2.92l27.53,30.02,72.1,84.07c1.71,1.99,26.34,30.47,40.8,47.03,.13-.48,.26-.97,.39-1.45Z"/>
  </g>
  <g id="d" data-name="Layer 2">
    <text class="g" transform="translate(94.66 303.57) scale(1.24 1)"><tspan x="0" y="0">Mina</tspan></text>
    <text/>
  </g>
</svg>