<?xml version="1.0"?>
<svg version="1.1" xmlns="http://www.w3.org/2000/svg" width="400" height="200" style="border: dashed 2px #aaa"><path fill="#" d="M15.833984375,95.26953125q0-0.642578125,0.1572265625-0.9365234375t0.451171875-0.41015625t0.7109375-0.0888671875t0.9775390625,0.02734375q1.421875,0,2.87109375,0.4375t2.611328125,1.2783203125t1.873046875,2.0712890625t0.7109375,2.830078125q0,1.06640625-0.3076171875,2.0166015625t-0.8681640625,1.77734375t-1.3125,1.5107421875t-1.654296875,1.189453125q0.369140625,0.369140625,0.95703125,1.3056640625t1.162109375,1.99609375t1.0185546875,2.0576171875t0.5263671875,1.50390625l-0.1640625,0.24609375q-0.369140625,0.21875-0.888671875,0.232421875q-0.24609375,0-0.642578125-0.0615234375t-0.505859375-0.3623046875q-0.560546875-1.572265625-1.2236328125-3.240234375t-1.6337890625-3.0078125l0-0.02734375q-0.341796875,0.13671875-0.6767578125,0.2666015625t-0.6767578125,0.2392578125q0.109375,1.517578125,0.2255859375,2.9873046875t0.1162109375,2.9736328125q0,0.19140625-0.1845703125,0.3076171875t-0.4169921875,0.1845703125t-0.4716796875,0.095703125t-0.3896484375,0.02734375q-0.13671875,0-0.3896484375-0.02734375t-0.4853515625-0.095703125t-0.4033203125-0.1982421875t-0.1708984375-0.3486328125q0-1.517578125-0.068359375-3.0283203125t-0.150390625-3.0146484375q-0.423828125-0.2734375-0.423828125-0.7109375q0-0.341796875,0.328125-0.46484375q-0.1640625-2.884765625-0.3759765625-5.755859375t-0.2119140625-5.783203125z M18.30859375,94.845703125q0.19140625,2.966796875,0.4306640625,5.865234375t0.4580078125,5.865234375q0.95703125-0.2734375,1.7841796875-0.9501953125t1.4287109375-1.5244140625t0.9365234375-1.845703125t0.3349609375-1.982421875q0-1.09375-0.4375-2.0986328125t-1.162109375-1.7568359375q-0.73828125-0.751953125-1.6953125-1.17578125q-0.84765625-0.369140625-1.77734375-0.369140625l-0.24609375,0z M28.99548828125,113.80859375q0.0546875-2.857421875,0.2392578125-5.701171875t0.3212890625-5.701171875q0.02734375-1.09375,0.02734375-1.9892578125t0.0888671875-1.5517578125t0.328125-1.0048828125t0.7998046875-0.3486328125q0.478515625,0,0.724609375,0.13671875t0.3759765625,0.3486328125t0.1572265625,0.478515625t0.02734375,0.5400390625q0,0.396484375,0.02734375,0.7861328125t0.02734375,0.7861328125q0,2.884765625-0.1572265625,5.755859375t-0.1572265625,5.783203125q0,0.423828125,0.013671875,0.8544921875t0.013671875,0.8818359375q0,0.1640625-0.150390625,0.2734375t-0.3759765625,0.1845703125t-0.478515625,0.1025390625t-0.4169921875,0.02734375q-0.19140625,0-0.4306640625-0.02734375t-0.46484375-0.1162109375t-0.3828125-0.2119140625t-0.1572265625-0.287109375z M29.76111328125,95.26953125q0-0.13671875,0.041015625-0.3076171875t0.095703125-0.3076171875q0.02734375-0.1640625,0.08203125-0.560546875t0.1982421875-0.7724609375t0.396484375-0.669921875t0.7177734375-0.2939453125l0.259765625,0q0.21875,0.0546875,0.4443359375,0.13671875t0.2255859375,0.396484375q0,0.13671875-0.013671875,0.259765625t-0.041015625,0.2734375q-0.109375,0.806640625-0.2119140625,1.271484375t-0.2392578125,0.7041015625t-0.3486328125,0.3076171875t-0.5400390625,0.095703125q-0.109375,0-0.2939453125-0.013671875t-0.35546875-0.068359375t-0.2939453125-0.1708984375t-0.123046875-0.2802734375z M34.1862890625,94.544921875q0-0.19140625,0.2666015625-0.2939453125t0.3486328125-0.1025390625l0.505859375-0.08203125q0.505859375-0.08203125,1.025390625-0.1435546875t1.01171875-0.1162109375q1.736328125-0.21875,3.47265625-0.4306640625t3.5-0.2119140625q0.13671875,0,0.3759765625,0.013671875t0.478515625,0.0751953125t0.41015625,0.1708984375t0.1708984375,0.30078125q0,0.13671875-0.1298828125,0.2392578125t-0.3076171875,0.1572265625t-0.3623046875,0.068359375t-0.2939453125,0.013671875l-0.2392578125,0t-0.2392578125-0.0546875q-0.724609375,0-1.4287109375,0.068359375t-1.4287109375,0.123046875q0.19140625,0.21875,0.205078125,0.615234375t0.02734375,0.68359375q0,4.83984375,0.068359375,9.625t0.123046875,9.666015625l0,0.02734375q-0.451171875,0.396484375-0.7724609375,0.505859375t-0.6494140625,0.109375q-0.314453125,0-0.6357421875-0.1162109375t-0.7724609375-0.4990234375l0-0.02734375l0.109375-10.732421875q0-1.06640625-0.02734375-2.3515625t-0.02734375-2.6044921875t0.041015625-2.5498046875t0.21875-2.146484375q-0.806640625,0.08203125-1.708984375,0.24609375q-0.779296875,0.13671875-1.490234375,0.13671875l-0.24609375,0q-0.0546875,0-0.3212890625,0.013671875t-0.546875-0.013671875t-0.505859375-0.109375t-0.2255859375-0.2734375z M47.70326171875,112.5234375q0.02734375-0.57421875,0.02734375-1.12109375q0-1.982421875,0.1435546875-3.951171875t0.1982421875-3.951171875q0.08203125-2.26953125,0.150390625-4.498046875t0.2734375-4.484375q0.0546875-0.560546875,0.3212890625-0.7314453125t0.7998046875-0.1708984375q0.24609375,0,0.65625,0.095703125t0.41015625,0.46484375q0.19140625,0.02734375,0.3828125,0.02734375q0.287109375,0,0.587890625-0.0546875q0.4921875-0.08203125,1.0048828125-0.1845703125t1.0185546875-0.1982421875t0.970703125-0.095703125q0.109375,0,0.3076171875,0.013671875t0.396484375,0.08203125t0.3349609375,0.1708984375t0.13671875,0.2666015625t-0.3212890625,0.2939453125t-0.8408203125,0.2255859375t-1.12109375,0.1640625t-1.17578125,0.1162109375t-1.0185546875,0.0751953125t-0.6357421875,0.02734375l-0.02734375,5.140625l0.02734375,2.556640625q0.423828125,0,1.271484375-0.02734375q0.341796875-0.013671875,0.68359375-0.013671875q0.51953125,0,1.06640625,0.02734375q0.90234375,0.041015625,1.626953125,0.1640625t0.916015625,0.4375q0,0.19140625-0.1982421875,0.3076171875t-0.4443359375,0.1708984375t-0.4990234375,0.068359375t-0.3623046875,0.013671875q-1.01171875,0-2.037109375-0.041015625t-2.0234375-0.1640625q0,1.681640625-0.0888671875,3.3359375t-0.0888671875,3.3359375q0,0.724609375,0.013671875,1.4287109375t0.1640625,1.4013671875q0.369140625-0.02734375,0.7998046875-0.068359375t0.875-0.1025390625t0.8544921875-0.1025390625t0.7109375-0.041015625q0.1640625,0,0.4443359375,0.041015625t0.57421875,0.13671875t0.505859375,0.2392578125t0.2119140625,0.3349609375q0,0.21875-0.4033203125,0.3896484375t-1.0322265625,0.2734375t-1.3740234375,0.1435546875t-1.4423828125,0.0546875t-1.2578125,0.013671875l-0.79296875,0q-0.751953125,0-1.1005859375-0.2802734375t-0.4853515625-0.7314453125q-0.109375-0.369140625-0.095703125-0.833984375l0-0.19140625z M59.07375,111.40234375q0-0.478515625,0.328125-0.6083984375t0.7109375-0.1298828125q0.669921875,0,1.134765625,0.6015625t0.8818359375,1.3193359375t0.8271484375,1.3193359375t0.970703125,0.6015625q0.423828125,0,0.7724609375-0.2119140625t0.6015625-0.533203125t0.3896484375-0.724609375t0.13671875-0.7998046875q0-1.0390625-0.4169921875-2.146484375t-1.06640625-2.283203125t-1.3740234375-2.40625t-1.3671875-2.501953125t-1.06640625-2.5908203125t-0.423828125-2.6591796875q0-2.009765625,1.203125-3.1171875t3.171875-1.107421875q0.669921875,0,1.353515625,0.19140625t1.2578125,0.57421875t0.9365234375,0.943359375t0.3623046875,1.3125q0,0.24609375-0.3623046875,0.3212890625t-0.5263671875,0.0751953125q-0.24609375,0-0.533203125-0.0615234375t-0.369140625-0.3349609375t-0.232421875-0.62890625t-0.3759765625-0.6630859375t-0.533203125-0.533203125t-0.6767578125-0.2255859375q-0.615234375,0-1.0458984375,0.2529296875t-0.697265625,0.6767578125t-0.396484375,0.9501953125t-0.1298828125,1.0869140625q0,1.3125,0.451171875,2.6455078125t1.12109375,2.65234375t1.4560546875,2.6044921875t1.4560546875,2.501953125t1.12109375,2.37890625t0.451171875,2.201171875q0,0.9296875-0.4375,1.572265625t-1.107421875,1.0458984375t-1.4833984375,0.587890625t-1.5927734375,0.1845703125q-0.833984375,0-1.708984375-0.3349609375t-1.572265625-0.9228515625t-1.1484375-1.3740234375t-0.451171875-1.7021484375z M71.31923828125,97.5595703125q-0.02734375-0.3623046875,0.0615234375-0.68359375t0.3349609375-0.533203125t0.833984375-0.2119140625q0.13671875,0,0.3349609375,0.02734375t0.396484375,0.0888671875t0.3212890625,0.1708984375t0.123046875,0.30078125q0,0.505859375,0.0341796875,1.3330078125t0.0888671875,1.72265625t0.1025390625,1.75t0.0888671875,1.3876953125q1.06640625-0.0546875,2.146484375-0.0546875t2.1328125-0.0546875l1.88671875-0.0546875l0-1.353515625q0-2.26953125-0.0888671875-4.5458984375t-0.3076171875-4.5458984375q0-0.1640625,0.13671875-0.2666015625t0.3212890625-0.1572265625t0.3828125-0.068359375t0.3076171875-0.013671875q0.314453125,0,0.6767578125,0.095703125t0.4169921875,0.41015625l0.08203125,0.587890625q0.341796875,2.4609375,0.46484375,4.8671875t0.177734375,4.8125q0.1640625,0.02734375,0.3486328125,0.0888671875t0.3759765625,0.1162109375q0.13671875,0.0546875,0.3896484375,0.1640625t0.2529296875,0.341796875q0,0.21875-0.19140625,0.341796875t-0.4306640625,0.1845703125t-0.46484375,0.0751953125t-0.2802734375,0.013671875q0.02734375,1.01171875,0.02734375,2.0166015625l0,2.0166015625l0,4.416015625l0,2.4609375q0,0.1640625-0.1572265625,0.2939453125t-0.3759765625,0.2119140625t-0.4580078125,0.109375t-0.4306640625,0.02734375t-0.451171875-0.02734375t-0.46484375-0.109375t-0.3623046875-0.205078125t-0.1572265625-0.30078125l0-0.587890625q0.0546875-2.59765625,0.123046875-5.1474609375t0.13671875-5.1201171875q-1.490234375,0.0546875-3.0283203125,0.068359375t-3.0556640625,0.068359375q0.1640625,1.927734375,0.3759765625,3.8486328125t0.4443359375,3.8486328125q0,0.1640625-0.1572265625,0.2939453125t-0.369140625,0.2119140625t-0.451171875,0.109375t-0.4306640625,0.02734375q-0.396484375,0-0.8681640625-0.13671875t-0.5263671875-0.505859375q-0.1640625-1.44921875-0.3076171875-3.19921875t-0.2529296875-3.5751953125t-0.1708984375-3.5751953125t-0.0615234375-3.171875q0-0.341796875-0.02734375-0.7041015625z"/><path fill="#" d="M91.7033984375,97.6171875q0-0.458984375,0.0244140625-0.908203125t0.0830078125-0.888671875q0.0390625-0.224609375,0.3466796875-0.322265625t0.5126953125-0.09765625l0.234375,0.01953125q0.283203125,0.0390625,0.5712890625-0.0390625t0.5712890625-0.078125q0.6640625,0,1.484375,0.146484375t1.5380859375,0.498046875t1.2060546875,0.9228515625t0.48828125,1.4111328125t-0.5078125,1.5673828125t-1.279296875,1.279296875t-1.66015625,0.8642578125t-1.630859375,0.3125q0.078125,1.884765625,0.2197265625,3.740234375t0.4833984375,3.7109375l0.01953125,0.126953125q0,0.13671875-0.1220703125,0.224609375t-0.2880859375,0.1416015625t-0.3369140625,0.0732421875t-0.2783203125,0.01953125q-0.244140625,0-0.5908203125-0.0927734375t-0.4248046875-0.3662109375q-0.224609375-0.859375-0.3515625-1.8896484375t-0.185546875-2.1533203125t-0.0830078125-2.2607421875t-0.0244140625-2.2216796875l0-2.197265625q0-0.361328125-0.009765625-0.751953125t-0.009765625-0.791015625z M93.5491015625,96.03515625q0,1.337890625,0.029296875,2.6708984375t0.068359375,2.6708984375q0.576171875-0.1171875,1.1767578125-0.4150390625t1.083984375-0.7080078125t0.78125-0.9326171875t0.2978515625-1.0986328125q0-0.517578125-0.2587890625-0.927734375t-0.6689453125-0.703125q-0.400390625-0.283203125-0.908203125-0.439453125q-0.44921875-0.13671875-0.87890625-0.13671875l-0.107421875,0z M100.70408203125,109.775390625q0-0.05859375,0.0390625-0.4150390625t0.1025390625-0.869140625t0.1416015625-1.103515625t0.13671875-1.1181640625t0.1025390625-0.927734375t0.0439453125-0.537109375q-0.078125-0.0390625-0.1904296875-0.1123046875t-0.1123046875-0.1708984375q0-0.13671875,0.1318359375-0.2197265625t0.2294921875-0.1220703125q0.0390625-0.498046875,0.09765625-1.38671875t0.1806640625-1.9189453125t0.341796875-2.08984375t0.5810546875-1.923828125t0.869140625-1.4111328125t1.25-0.546875t1.23046875,0.46875t0.7958984375,1.220703125t0.46875,1.669921875t0.244140625,1.826171875t0.1025390625,1.69921875t0.0390625,1.26953125q0.01953125,0.302734375,0.146484375,0.4052734375t0.2783203125,0.1416015625t0.2734375,0.087890625t0.1220703125,0.244140625q0,0.224609375-0.2734375,0.3125t-0.4296875,0.107421875q0.09765625,1.220703125,0.2685546875,2.40234375t0.4541015625,2.3828125q0.0390625,0.224609375,0.107421875,0.4541015625t0.068359375,0.4443359375q0,0.15625-0.107421875,0.2587890625t-0.2783203125,0.1611328125t-0.341796875,0.078125t-0.2880859375,0.01953125q-0.439453125,0-0.7421875-0.166015625t-0.400390625-0.634765625q-0.263671875-1.259765625-0.517578125-2.646484375q-0.21484375-1.201171875-0.21484375-2.333984375q0-0.17578125,0.009765625-0.3515625q-0.8203125,0-1.650390625,0.0390625t-1.591796875,0.29296875q-0.01953125,0.263671875-0.09765625,0.99609375t-0.17578125,1.572265625t-0.2001953125,1.6064453125t-0.1220703125,1.0888671875q-0.01953125,0.13671875-0.2001953125,0.2587890625t-0.390625,0.1318359375t-0.37109375-0.1318359375t-0.1611328125-0.5029296875z M102.53025390625,103.857421875q0.76171875-0.17578125,1.5283203125-0.205078125t1.5478515625-0.068359375q-0.0390625-0.244140625-0.01953125-0.5029296875t0.01953125-0.5224609375q0-0.576171875-0.029296875-1.337890625t-0.087890625-1.54296875t-0.1513671875-1.5380859375t-0.2099609375-1.34765625t-0.2490234375-0.9423828125t-0.2880859375-0.3515625q-0.302734375,0.01953125-0.5712890625,0.5224609375t-0.48828125,1.279296875t-0.400390625,1.73828125t-0.302734375,1.8798828125t-0.2001953125,1.708984375t-0.09765625,1.23046875z M109.94890625,96.103515625q0-0.13671875,0.1904296875-0.2099609375t0.2490234375-0.0732421875l0.361328125-0.05859375q0.361328125-0.05859375,0.732421875-0.1025390625t0.72265625-0.0830078125q1.240234375-0.15625,2.48046875-0.3076171875t2.5-0.1513671875q0.09765625,0,0.2685546875,0.009765625t0.341796875,0.0537109375t0.29296875,0.1220703125t0.1220703125,0.21484375q0,0.09765625-0.0927734375,0.1708984375t-0.2197265625,0.1123046875t-0.2587890625,0.048828125t-0.2099609375,0.009765625l-0.1708984375,0t-0.1708984375-0.0390625q-0.517578125,0-1.0205078125,0.048828125t-1.0205078125,0.087890625q0.13671875,0.15625,0.146484375,0.439453125t0.01953125,0.48828125q0,3.45703125,0.048828125,6.875t0.087890625,6.904296875l0,0.01953125q-0.322265625,0.283203125-0.5517578125,0.361328125t-0.4638671875,0.078125q-0.224609375,0-0.4541015625-0.0830078125t-0.5517578125-0.3564453125l0-0.01953125l0.078125-7.666015625q0-0.76171875-0.01953125-1.6796875t-0.01953125-1.8603515625t0.029296875-1.8212890625t0.15625-1.533203125q-0.576171875,0.05859375-1.220703125,0.17578125q-0.556640625,0.09765625-1.064453125,0.09765625l-0.17578125,0q-0.0390625,0-0.2294921875,0.009765625t-0.390625-0.009765625t-0.361328125-0.078125t-0.1611328125-0.1953125z M119.60388671875,108.9453125q0.01953125-0.41015625,0.01953125-0.80078125q0-1.416015625,0.1025390625-2.822265625t0.1416015625-2.822265625q0.05859375-1.62109375,0.107421875-3.212890625t0.1953125-3.203125q0.0390625-0.400390625,0.2294921875-0.5224609375t0.5712890625-0.1220703125q0.17578125,0,0.46875,0.068359375t0.29296875,0.33203125q0.13671875,0.01953125,0.2734375,0.01953125q0.205078125,0,0.419921875-0.0390625q0.3515625-0.05859375,0.7177734375-0.1318359375t0.7275390625-0.1416015625t0.693359375-0.068359375q0.078125,0,0.2197265625,0.009765625t0.283203125,0.05859375t0.2392578125,0.1220703125t0.09765625,0.1904296875t-0.2294921875,0.2099609375t-0.6005859375,0.1611328125t-0.80078125,0.1171875t-0.83984375,0.0830078125t-0.7275390625,0.0537109375t-0.4541015625,0.01953125l-0.01953125,3.671875l0.01953125,1.826171875q0.302734375,0,0.908203125-0.01953125q0.244140625-0.009765625,0.48828125-0.009765625q0.37109375,0,0.76171875,0.01953125q0.64453125,0.029296875,1.162109375,0.1171875t0.654296875,0.3125q0,0.13671875-0.1416015625,0.2197265625t-0.3173828125,0.1220703125t-0.3564453125,0.048828125t-0.2587890625,0.009765625q-0.72265625,0-1.455078125-0.029296875t-1.4453125-0.1171875q0,1.201171875-0.0634765625,2.3828125t-0.0634765625,2.3828125q0,0.517578125,0.009765625,1.0205078125t0.1171875,1.0009765625q0.263671875-0.01953125,0.5712890625-0.048828125t0.625-0.0732421875t0.6103515625-0.0732421875t0.5078125-0.029296875q0.1171875,0,0.3173828125,0.029296875t0.41015625,0.09765625t0.361328125,0.1708984375t0.1513671875,0.2392578125q0,0.15625-0.2880859375,0.2783203125t-0.7373046875,0.1953125t-0.9814453125,0.1025390625t-1.0302734375,0.0390625t-0.8984375,0.009765625l-0.56640625,0q-0.537109375,0-0.7861328125-0.2001953125t-0.3466796875-0.5224609375q-0.078125-0.263671875-0.068359375-0.595703125l0-0.13671875z M127.7451953125,104.98046875l0-1.54296875q0-1.6015625,0.0537109375-3.1787109375t0.0927734375-3.1787109375q0-0.302734375-0.01953125-0.673828125q-0.009765625-0.107421875-0.009765625-0.205078125q0-0.244140625,0.0390625-0.478515625q0.048828125-0.3125,0.2392578125-0.537109375t0.6298828125-0.224609375q0.361328125,0,0.5517578125,0.078125t0.2685546875,0.2294921875t0.087890625,0.380859375t0.009765625,0.5322265625q0,1.62109375-0.0390625,3.251953125q-0.029296875,1.083984375-0.029296875,2.16796875q0,0.546875,0.009765625,1.09375q0.01953125,1.62109375,0.1513671875,3.2421875t0.4443359375,3.203125q0.9765625-0.0390625,1.953125-0.09765625t1.953125-0.05859375q0.09765625,0,0.2783203125,0.01953125t0.361328125,0.068359375t0.3076171875,0.126953125t0.126953125,0.224609375q0,0.09765625-0.087890625,0.166015625t-0.166015625,0.107421875l-0.01953125,0q-0.15625,0.078125-0.6201171875,0.1513671875t-1.0546875,0.1123046875t-1.240234375,0.068359375t-1.220703125,0.048828125t-0.9912109375,0.029296875t-0.517578125,0.009765625l-0.087890625,0q-0.234375,0-0.52734375-0.078125q-0.3515625-0.09765625-0.439453125-0.380859375q-0.17578125-0.72265625-0.2783203125-1.4990234375t-0.15625-1.5771484375t-0.0537109375-1.6015625z"/></svg>
