<?xml version="1.0" standalone="no"?>
<!DOCTYPE svg PUBLIC "-//W3C//DTD SVG 20010904//EN"
 "http://www.w3.org/TR/2001/REC-SVG-20010904/DTD/svg10.dtd">
<svg version="1.0" xmlns="http://www.w3.org/2000/svg"
 width="933.000000pt" height="933.000000pt" viewBox="0 0 933.000000 933.000000"
 preserveAspectRatio="xMidYMid meet">

<g transform="translate(0.000000,933.000000) scale(0.100000,-0.100000)"
fill="#000000" stroke="none">
<path d="M4340 9319 c-1135 -80 -2215 -580 -3005 -1390 -129 -133 -258 -279
-314 -356 l-23 -31 21 -94 c231 -1013 521 -1883 960 -2878 65 -148 50 -130
-164 190 -366 548 -618 1010 -935 1715 -47 103 -170 401 -221 534 -9 24 -10
24 -23 5 -57 -80 -236 -450 -310 -637 -638 -1616 -324 -3448 815 -4767 1013
-1172 2560 -1766 4099 -1574 1364 170 2577 929 3332 2084 877 1341 1000 3045
327 4501 -101 219 -243 474 -259 464 -5 -3 -14 -22 -21 -43 -19 -58 -100 -261
-182 -452 -270 -633 -593 -1228 -961 -1770 -120 -177 -242 -345 -233 -320 3 8
47 105 97 215 212 464 342 801 529 1370 124 377 155 477 230 750 85 314 124
470 157 631 l28 142 -74 88 c-41 49 -133 149 -205 223 -737 758 -1715 1244
-2765 1375 -277 35 -626 44 -900 25z m1280 -3429 l0 -480 -1030 0 -1030 0 0
480 0 480 1030 0 1030 0 0 -480z m-4739 -1638 c523 -2 598 1 599 27 0 3 9 17
20 31 l20 25 0 -150 c0 -150 0 -150 -18 -120 -38 61 -33 60 -296 60 l-241 0
-3 -505 c-1 -278 0 -520 3 -538 4 -23 16 -39 38 -52 l32 -20 -140 0 -140 0 32
20 c18 11 35 30 38 42 3 13 4 255 3 538 l-3 515 -243 0 -244 0 -21 -26 c-12
-14 -27 -35 -34 -45 -9 -15 -12 11 -12 130 l-1 149 34 -39 34 -39 543 -3z
m1281 0 c66 -29 132 -100 158 -170 18 -46 21 -72 18 -137 -5 -85 -18 -122 -71
-189 l-31 -38 41 -34 c22 -18 79 -80 127 -138 49 -59 92 -106 97 -106 19 0
109 99 109 120 0 12 -7 34 -15 50 -26 51 0 41 46 -18 24 -31 73 -87 108 -125
64 -68 76 -99 21 -59 -16 12 -40 22 -53 22 -25 0 -125 -77 -126 -97 -2 -23
208 -262 252 -287 68 -40 131 -35 157 14 14 27 14 1101 -1 1133 -6 13 -25 31
-42 40 -31 15 -29 16 76 16 l107 1 0 -73 0 -73 352 -374 c193 -206 358 -376
365 -378 12 -3 14 61 11 410 -3 443 -3 444 -56 472 -25 14 -16 15 118 16 l145
0 -33 -20 c-18 -11 -37 -32 -42 -46 -7 -17 -9 -227 -8 -576 3 -548 3 -550 24
-566 12 -10 30 -22 40 -29 15 -9 -10 -12 -125 -12 l-144 -1 36 33 c23 21 37
44 41 68 6 36 4 38 -356 424 l-363 389 -3 -425 -3 -424 37 -32 37 -33 -259 0
-259 0 -100 120 c-55 66 -103 120 -107 120 -4 0 -57 -45 -119 -101 -76 -70
-131 -111 -177 -132 -61 -29 -75 -32 -167 -32 -93 0 -105 2 -167 33 -84 41
-167 128 -199 209 -19 47 -23 78 -24 158 0 91 3 106 31 165 31 66 74 118 129
157 l29 21 -33 38 c-55 62 -75 118 -76 209 0 68 4 89 28 137 34 69 100 130
171 158 67 26 179 23 248 -8z m4068 -24 c-21 -14 -37 -36 -42 -56 -5 -18 -7
-273 -6 -568 l3 -536 33 -29 32 -29 -132 0 c-130 1 -132 1 -105 18 16 10 32
32 38 52 6 22 9 220 7 540 l-3 505 -210 0 -210 0 -3 -515 c-2 -371 1 -523 9
-543 7 -15 24 -34 38 -42 24 -13 13 -14 -113 -15 l-139 0 34 23 34 23 0 534 0
535 -205 0 -205 0 -3 -515 c-1 -283 0 -525 3 -538 3 -12 20 -31 38 -42 l32
-20 -140 0 c-129 1 -138 2 -113 16 15 8 32 23 38 34 16 30 14 1121 -2 1143 -7
9 -26 23 -43 32 -27 13 34 15 669 15 l699 0 -33 -22z m559 2 c-20 -11 -40 -27
-45 -37 -12 -23 -17 -1056 -6 -1108 6 -29 17 -46 41 -62 l34 -23 -149 0 c-141
0 -147 1 -118 16 17 8 36 26 43 40 15 34 16 1106 0 1135 -5 11 -25 29 -42 39
l-32 20 155 0 155 -1 -36 -19z m501 -53 l0 -73 352 -374 c193 -206 358 -376
365 -378 12 -3 14 61 11 410 -3 443 -3 444 -56 472 -25 14 -16 15 118 16 l145
0 -33 -20 c-18 -11 -37 -32 -42 -46 -13 -34 -13 -1084 0 -1118 5 -14 24 -33
42 -43 l33 -18 -73 -3 c-39 -2 -105 -2 -145 0 l-72 3 33 20 c32 19 36 25 47
81 5 29 -12 50 -357 419 l-363 389 -3 -425 -3 -424 37 -32 37 -33 -144 1
c-116 0 -140 3 -125 12 11 7 30 22 43 34 l23 22 0 551 c0 371 -3 558 -11 571
-5 11 -25 29 -42 39 l-32 20 108 0 107 0 0 -73z m1459 53 c-20 -11 -40 -27
-45 -37 -14 -28 -17 -1064 -4 -1113 8 -29 21 -47 43 -60 l32 -20 -150 0 c-142
0 -148 1 -119 16 17 8 36 26 43 40 15 34 16 1106 0 1135 -5 11 -25 29 -42 39
l-32 20 155 0 155 -1 -36 -19z"/>
<path d="M3675 6248 c-3 -7 -4 -173 -3 -368 l3 -355 915 0 915 0 0 365 0 365
-913 3 c-727 2 -914 0 -917 -10z m398 -169 c53 -14 57 -31 19 -87 -7 -10 -17
-9 -51 3 -55 19 -95 19 -111 0 -21 -26 -4 -42 66 -59 80 -20 120 -40 134 -65
13 -26 13 -97 -1 -123 -16 -30 -86 -58 -150 -58 -55 0 -159 25 -159 38 0 8 38
72 43 72 2 0 24 -7 49 -16 56 -19 107 -15 122 8 16 26 -1 37 -86 59 -97 26
-133 61 -125 126 8 75 60 112 157 113 30 0 72 -5 93 -11z m798 -12 c24 -13 58
-43 74 -66 26 -37 30 -51 30 -111 0 -60 -4 -74 -30 -111 -131 -186 -425 -51
-360 167 35 120 175 179 286 121z m-581 -62 l0 -75 70 0 70 0 0 75 0 75 50 0
50 0 0 -190 0 -190 -50 0 -50 0 0 69 0 69 -66 4 c-36 1 -68 1 -70 -1 -2 -2 -4
-35 -4 -73 l0 -68 -50 0 -50 0 0 190 0 190 50 0 50 0 0 -75z m979 57 c45 -24
74 -76 67 -121 -11 -73 -61 -114 -151 -121 l-60 -5 -3 -57 -3 -58 -44 0 -45 0
0 190 0 190 103 0 c80 0 110 -4 136 -18z"/>
<path d="M4728 5985 c-31 -17 -58 -62 -58 -95 0 -34 28 -78 60 -95 46 -24 78
-19 116 19 28 28 34 42 34 75 0 79 -86 133 -152 96z"/>
<path d="M5130 5955 l0 -45 38 0 c38 0 72 23 72 48 0 22 -33 42 -71 42 l-39 0
0 -45z"/>
<path d="M1966 4146 c-76 -28 -126 -99 -126 -179 0 -83 39 -143 115 -178 130
-60 279 51 262 196 -13 121 -140 202 -251 161z"/>
<path d="M1978 3639 c-58 -9 -104 -36 -153 -90 -50 -56 -68 -102 -68 -179 0
-81 28 -143 88 -199 57 -53 106 -72 183 -73 89 0 145 30 271 150 l105 98 -109
127 c-138 160 -187 186 -317 166z"/>
<path d="M8395 7378 c-9 -29 -19 -60 -21 -68 -1 -8 -9 -45 -17 -81 -8 -36 -20
-76 -27 -88 -13 -26 -7 -51 14 -51 8 0 16 -6 19 -12 3 -10 9 -10 27 0 12 7 24
11 27 8 3 -3 -1 -8 -10 -12 -13 -4 -14 -10 -7 -24 14 -26 13 -30 -9 -30 -11 0
-27 13 -37 29 l-17 29 -19 -23 c-10 -13 -18 -29 -18 -37 0 -7 -6 -31 -14 -53
-7 -22 -16 -57 -20 -77 -7 -36 -6 -38 19 -36 16 2 24 7 20 15 -6 17 30 53 53
53 25 0 42 19 42 47 0 13 7 26 15 29 8 4 15 19 15 34 0 16 5 32 10 35 8 5 7
11 -1 21 -9 11 -8 14 8 14 23 0 45 41 33 60 -6 9 -2 19 9 29 10 9 23 31 29 49
11 31 9 38 -20 80 -23 34 -34 42 -36 30 -2 -10 -9 -15 -18 -11 -11 4 -12 9 -4
18 8 10 7 22 -5 44 -8 17 -17 31 -19 31 -2 0 -11 -24 -21 -52z m85 -87 c0 -12
-28 -22 -34 -12 -3 5 -3 11 1 15 9 9 33 7 33 -3z m-46 -97 c22 -8 20 -36 -1
-32 -10 1 -23 -1 -30 -5 -14 -9 -27 9 -19 28 6 16 24 19 50 9z m-51 -214 c6
-24 -3 -31 -32 -23 -21 5 -21 7 -5 24 22 24 30 24 37 -1z"/>
<path d="M800 7270 c-35 -52 -64 -102 -65 -110 0 -8 -4 -21 -9 -28 -4 -6 -2
-12 3 -12 6 0 11 -7 11 -15 0 -8 6 -15 14 -15 19 0 27 -24 19 -61 -5 -29 -4
-31 16 -24 17 5 21 2 21 -13 0 -11 6 -22 13 -25 9 -4 9 -7 0 -17 -10 -11 -5
-20 23 -47 31 -29 33 -33 15 -33 -12 0 -21 -4 -21 -10 0 -5 6 -10 13 -10 20 0
51 -37 38 -44 -7 -5 -7 -13 -2 -24 5 -9 12 -24 15 -32 4 -8 15 -30 26 -47 11
-18 17 -39 14 -47 -3 -8 4 -21 16 -29 13 -9 18 -20 14 -31 -3 -9 -2 -16 4 -16
10 0 23 -31 26 -60 1 -8 7 -14 14 -13 7 2 14 -14 18 -37 5 -31 11 -40 26 -40
13 0 18 -6 16 -17 -2 -10 3 -24 12 -31 12 -11 12 -14 2 -19 -10 -4 -5 -15 18
-38 20 -20 30 -40 27 -49 -4 -10 -1 -13 9 -9 9 3 14 -1 14 -13 0 -11 7 -28 15
-38 17 -23 20 -40 5 -31 -5 3 -10 -1 -10 -9 0 -8 6 -13 13 -10 7 2 17 -8 24
-27 7 -18 16 -28 23 -24 8 5 6 14 -5 31 -9 14 -15 30 -14 37 1 6 -3 25 -9 40
-7 16 -12 34 -12 41 0 12 -24 91 -39 131 -29 73 -52 139 -71 199 -11 38 -24
74 -29 80 -5 6 -19 52 -31 101 -13 50 -26 99 -31 110 -4 11 -15 53 -24 93 -10
40 -21 75 -26 78 -5 3 -9 19 -9 37 0 17 -6 49 -14 72 -8 22 -19 67 -26 100
-22 110 -20 110 -90 5z m68 -87 c2 -9 -7 -13 -28 -13 -28 0 -31 2 -20 15 15
18 41 16 48 -2z m12 -137 c0 -8 -4 -18 -10 -21 -5 -3 -10 3 -10 14 0 12 5 21
10 21 6 0 10 -6 10 -14z m55 -166 c3 -5 -1 -10 -10 -10 -9 0 -13 5 -10 10 3 6
8 10 10 10 2 0 7 -4 10 -10z m30 -40 c3 -5 1 -10 -4 -10 -6 0 -11 5 -11 10 0
6 2 10 4 10 3 0 8 -4 11 -10z"/>
<path d="M680 7061 c0 -11 5 -23 10 -26 6 -4 10 -12 9 -18 -1 -7 5 -28 14 -47
12 -28 17 -31 22 -18 4 9 0 32 -8 50 -9 18 -18 43 -22 56 -8 27 -25 29 -25 3z"/>
<path d="M737 6924 c-7 -7 25 -94 34 -94 16 0 13 36 -4 53 -10 10 -16 25 -13
33 5 14 -5 19 -17 8z"/>
<path d="M8249 6813 c-6 -16 -17 -50 -24 -78 -8 -27 -21 -63 -29 -80 -9 -16
-16 -39 -16 -50 0 -12 -4 -25 -9 -30 -5 -6 -12 -20 -15 -31 -5 -16 -2 -23 14
-27 22 -6 60 26 60 50 0 21 -20 15 -30 -9 -13 -34 -12 -3 2 42 11 34 16 39 38
35 14 -3 19 -2 13 1 -19 9 -16 17 22 60 19 21 35 47 35 56 0 9 3 23 6 32 4 10
1 16 -9 16 -8 0 -17 9 -20 20 -7 28 -26 25 -38 -7z"/>
<path d="M776 6805 c4 -8 10 -12 15 -9 14 8 10 24 -6 24 -9 0 -12 -6 -9 -15z"/>
<path d="M790 6774 c1 -16 29 -60 29 -44 0 8 -6 24 -14 34 -8 11 -15 16 -15
10z"/>
<path d="M857 6600 c3 -11 9 -20 15 -20 5 0 4 9 -2 20 -6 11 -12 20 -14 20 -2
0 -2 -9 1 -20z"/>
<path d="M8139 6488 c-15 -28 -48 -130 -59 -180 -5 -28 -4 -38 5 -38 7 0 13
11 13 24 0 14 9 37 20 51 12 14 19 32 16 40 -3 7 -1 16 5 19 6 4 8 13 4 21 -4
11 -1 13 12 9 15 -6 15 -4 4 14 -11 17 -11 24 -1 34 14 14 16 28 2 28 -5 0
-15 -10 -21 -22z"/>
<path d="M1255 6030 c-3 -5 -1 -10 4 -10 6 0 11 5 11 10 0 6 -2 10 -4 10 -3 0
-8 -4 -11 -10z"/>
<path d="M1330 5864 c0 -6 7 -19 16 -30 14 -18 14 -18 3 6 -14 31 -19 36 -19
24z"/>
</g>
</svg>
